<svg version="1.1" id="Layer_1" xmlns="http://www.w3.org/2000/svg" xmlns:xlink="http://www.w3.org/1999/xlink" x="0px" y="0px"
	 width="100%" viewBox="0 0 562 366" enable-background="new 0 0 562 366" xml:space="preserve">
<path fill="#F6F9F9" opacity="1.000000" stroke="none" 
	d="
M375.000000,367.000000 
	C250.000000,367.000000 125.500000,367.000000 1.000000,367.000000 
	C1.000000,245.000000 1.000000,123.000000 1.000000,1.000000 
	C188.333328,1.000000 375.666656,1.000000 563.000000,1.000000 
	C563.000000,123.000000 563.000000,245.000000 563.000000,367.000000 
	C500.500000,367.000000 438.000000,367.000000 375.000000,367.000000 
M227.500000,33.134697 
	C172.171799,33.133053 116.843590,33.114006 61.515400,33.138660 
	C40.498512,33.148026 26.899387,46.487000 26.887178,67.301079 
	C26.837324,152.292999 27.032171,237.285522 26.742781,322.276489 
	C26.676846,341.641693 40.687744,357.168243 62.054329,357.115662 
	C164.210693,356.864136 266.368042,357.005859 368.525024,357.006653 
	C415.853882,357.007019 463.183411,356.855682 510.511292,357.070068 
	C532.412231,357.169281 545.339722,340.320038 545.268555,322.732269 
	C544.924133,237.575104 545.137756,152.415741 545.086670,67.257202 
	C545.084595,63.799866 544.973938,60.165752 543.952942,56.915913 
	C539.035400,41.264053 527.652466,33.150383 510.973267,33.146576 
	C416.815521,33.125088 322.657745,33.135372 227.500000,33.134697 
z"/>
<path fill="#03FEC3" opacity="1.000000" stroke="none" 
	d="
M228.000000,33.134762 
	C322.657745,33.135372 416.815521,33.125088 510.973267,33.146576 
	C527.652466,33.150383 539.035400,41.264053 543.952942,56.915913 
	C544.973938,60.165752 545.084595,63.799866 545.086670,67.257202 
	C545.137756,152.415741 544.924133,237.575104 545.268555,322.732269 
	C545.339722,340.320038 532.412231,357.169281 510.511292,357.070068 
	C463.183411,356.855682 415.853882,357.007019 368.525024,357.006653 
	C266.368042,357.005859 164.210693,356.864136 62.054329,357.115662 
	C40.687744,357.168243 26.676846,341.641693 26.742781,322.276489 
	C27.032171,237.285522 26.837324,152.292999 26.887178,67.301079 
	C26.899387,46.487000 40.498512,33.148026 61.515400,33.138660 
	C116.843590,33.114006 172.171799,33.133053 228.000000,33.134762 
M91.309196,274.499969 
	C91.310577,289.332306 91.501503,304.168457 91.202911,318.994751 
	C91.107925,323.711426 92.625214,324.783997 97.135910,324.780273 
	C222.794800,324.677185 348.453796,324.714325 474.112762,324.707397 
	C476.203125,324.707306 478.293518,324.448944 480.203186,324.322998 
	C480.203186,260.519501 480.203186,197.326752 480.203186,133.259720 
	C471.041595,139.048798 462.605286,144.344101 454.203827,149.694153 
	C404.052063,181.630829 353.943115,213.634964 303.736176,245.484589 
	C291.973175,252.946640 279.914459,252.914093 268.035583,245.384903 
	C251.718933,235.042938 235.382111,224.732620 219.091125,214.350388 
	C177.942978,188.126709 136.817963,161.866669 95.667435,135.646729 
	C94.535248,134.925323 93.218155,134.494110 91.309608,133.615662 
	C91.309608,180.881943 91.309608,227.190948 91.309196,274.499969 
M193.500031,65.321495 
	C190.333679,65.321457 187.167313,65.321648 184.000961,65.321327 
	C155.005966,65.318390 126.010910,65.290871 97.016151,65.370850 
	C95.202995,65.375847 92.644234,65.634499 91.731133,66.796082 
	C89.630066,69.468941 91.694908,76.669281 94.658630,78.556549 
	C114.319359,91.076256 134.006592,103.554337 153.669281,116.070961 
	C196.512253,143.343399 239.357925,170.611618 282.154755,197.956268 
	C284.920563,199.723480 287.018433,199.715195 289.827332,197.924255 
	C352.448639,157.997391 415.111389,118.135300 477.834259,78.368134 
	C482.472839,75.427208 480.378632,71.270546 480.324860,67.638657 
	C480.313080,66.842178 476.510101,65.434181 474.451660,65.431641 
	C381.134552,65.316368 287.817291,65.326523 193.500031,65.321495 
z"/>
<path fill="#F6F9F9" opacity="1.000000" stroke="none" 
	d="
M91.309402,273.999939 
	C91.309608,227.190948 91.309608,180.881943 91.309608,133.615662 
	C93.218155,134.494110 94.535248,134.925323 95.667435,135.646729 
	C136.817963,161.866669 177.942978,188.126709 219.091125,214.350388 
	C235.382111,224.732620 251.718933,235.042938 268.035583,245.384903 
	C279.914459,252.914093 291.973175,252.946640 303.736176,245.484589 
	C353.943115,213.634964 404.052063,181.630829 454.203827,149.694153 
	C462.605286,144.344101 471.041595,139.048798 480.203186,133.259720 
	C480.203186,197.326752 480.203186,260.519501 480.203186,324.322998 
	C478.293518,324.448944 476.203125,324.707306 474.112762,324.707397 
	C348.453796,324.714325 222.794800,324.677185 97.135910,324.780273 
	C92.625214,324.783997 91.107925,323.711426 91.202911,318.994751 
	C91.501503,304.168457 91.310577,289.332306 91.309402,273.999939 
z"/>
<path fill="#F5F9F9" opacity="1.000000" stroke="none" 
	d="
M194.000031,65.321716 
	C287.817291,65.326523 381.134552,65.316368 474.451660,65.431641 
	C476.510101,65.434181 480.313080,66.842178 480.324860,67.638657 
	C480.378632,71.270546 482.472839,75.427208 477.834259,78.368134 
	C415.111389,118.135300 352.448639,157.997391 289.827332,197.924255 
	C287.018433,199.715195 284.920563,199.723480 282.154755,197.956268 
	C239.357925,170.611618 196.512253,143.343399 153.669281,116.070961 
	C134.006592,103.554337 114.319359,91.076256 94.658630,78.556549 
	C91.694908,76.669281 89.630066,69.468941 91.731133,66.796082 
	C92.644234,65.634499 95.202995,65.375847 97.016151,65.370850 
	C126.010910,65.290871 155.005966,65.318390 184.000961,65.321327 
	C187.167313,65.321648 190.333679,65.321457 194.000031,65.321716 
z"/>
</svg>