<svg version="1.1" id="Layer_1" xmlns="http://www.w3.org/2000/svg" xmlns:xlink="http://www.w3.org/1999/xlink" x="0px" y="0px"
	 width="100%" viewBox="0 0 562 613" enable-background="new 0 0 562 613" xml:space="preserve">
<path fill="#F8F9F9" opacity="1.000000" stroke="none" 
	d="
M364.000000,614.000000 
	C242.666672,614.000000 121.833336,614.000000 1.000000,614.000000 
	C1.000000,409.666656 1.000000,205.333328 1.000000,1.000000 
	C188.333328,1.000000 375.666656,1.000000 563.000000,1.000000 
	C563.000000,205.333328 563.000000,409.666656 563.000000,614.000000 
	C496.833344,614.000000 430.666656,614.000000 364.000000,614.000000 
M165.089798,499.338318 
	C163.091583,494.976593 159.892029,490.771729 159.298721,486.226593 
	C156.405136,464.059692 145.316833,447.460907 126.860397,435.347656 
	C123.952034,433.438843 121.151009,431.258667 118.673950,428.823914 
	C114.127876,424.355469 115.167068,420.471832 121.427284,419.452179 
	C125.090332,418.855591 129.132065,419.088776 132.751312,419.976562 
	C148.682785,423.884399 159.823318,433.895844 168.456238,447.641815 
	C183.997040,472.386993 211.976776,480.703827 238.655807,469.295929 
	C241.390076,468.126801 242.509659,466.569458 243.432983,463.694855 
	C245.854034,456.157257 248.805344,448.759186 252.047546,441.530792 
	C253.406494,438.501068 256.033875,436.040283 258.566101,432.682281 
	C255.532242,432.083710 253.286865,431.722534 251.082108,431.192413 
	C237.208878,427.856812 222.920334,425.666626 209.565948,420.876343 
	C181.863998,410.939453 162.107895,392.001434 151.142746,364.323273 
	C142.438934,342.353210 140.188690,319.353638 141.335892,296.114105 
	C142.380920,274.944275 150.326355,255.937622 163.859299,239.557404 
	C166.760666,236.045578 167.442810,233.224045 166.183807,228.857483 
	C160.312775,208.495026 161.516434,188.353287 169.413223,168.703384 
	C169.966354,167.327011 172.396927,165.771240 173.861359,165.858658 
	C179.813309,166.214005 185.910385,166.504623 191.623703,168.044479 
	C208.347824,172.551956 223.385437,180.788132 237.650452,190.454849 
	C240.334473,192.273682 242.809052,192.489075 246.008530,191.854599 
	C258.565857,189.364426 271.125977,186.470200 283.831787,185.232788 
	C311.548859,182.533463 339.047058,184.828247 366.076721,191.664536 
	C369.675659,192.574738 372.206421,191.758392 375.337494,190.079819 
	C388.364655,183.095932 401.320068,175.827591 414.907501,170.100769 
	C422.053467,167.088898 430.421448,166.818192 438.303741,165.845581 
	C439.871124,165.652176 442.749573,167.527756 443.315948,169.074509 
	C450.646820,189.094223 452.824066,209.540222 446.758087,230.291168 
	C445.714172,233.862213 446.337738,236.119659 448.561188,238.813416 
	C458.241089,250.540955 464.946136,263.792725 468.710785,278.583130 
	C472.091583,291.865692 472.453094,305.355774 470.883209,318.766022 
	C469.360901,331.769867 467.886902,345.042603 464.023438,357.460449 
	C451.781738,396.807220 422.640442,417.648438 384.006470,426.968689 
	C374.401611,429.285858 364.581299,430.710022 354.448181,432.622345 
	C355.281586,433.881683 355.831055,434.870331 356.527893,435.741058 
	C366.580231,448.302948 371.559052,462.391663 371.238373,478.704498 
	C370.770081,502.526855 371.073425,526.366089 371.186737,550.197510 
	C371.242035,561.828735 381.215027,567.657654 391.716156,562.369812 
	C413.883698,551.207275 433.986023,537.056946 452.085480,520.114258 
	C482.800140,491.362610 505.074890,457.080658 519.275391,417.455688 
	C529.438049,389.098083 534.651978,359.874481 534.528320,329.834717 
	C534.432129,306.451294 531.304565,283.352325 524.812500,260.796967 
	C511.826508,215.680069 488.965179,176.436356 455.125763,143.742905 
	C430.881317,120.319527 403.126190,102.138672 371.813293,89.767075 
	C343.292603,78.498688 314.209808,70.810852 282.772125,74.694855 
	C233.811981,80.743690 189.531219,97.814751 150.732391,128.232086 
	C98.474121,169.201263 66.607407,222.672287 54.710121,288.023315 
	C48.293724,323.268158 49.055710,358.469543 57.722946,393.111694 
	C76.371918,467.649963 119.444237,523.942566 186.889374,560.966248 
	C200.222519,568.285400 214.605331,573.930908 228.962814,579.065491 
	C239.272797,582.752502 246.716660,576.399475 246.842575,565.479492 
	C246.950180,556.147888 246.866501,546.814087 246.867203,537.481262 
	C246.867538,532.873779 246.867279,528.266296 246.867279,523.412720 
	C241.113190,524.207520 236.040131,525.135315 230.925095,525.576660 
	C204.912292,527.821045 181.852936,522.375854 165.089798,499.338318 
z"/>
<path fill="#03FEC3" opacity="1.000000" stroke="none" 
	d="
M165.278137,499.648376 
	C181.852936,522.375854 204.912292,527.821045 230.925095,525.576660 
	C236.040131,525.135315 241.113190,524.207520 246.867279,523.412720 
	C246.867279,528.266296 246.867538,532.873779 246.867203,537.481262 
	C246.866501,546.814087 246.950180,556.147888 246.842575,565.479492 
	C246.716660,576.399475 239.272797,582.752502 228.962814,579.065491 
	C214.605331,573.930908 200.222519,568.285400 186.889374,560.966248 
	C119.444237,523.942566 76.371918,467.649963 57.722946,393.111694 
	C49.055710,358.469543 48.293724,323.268158 54.710121,288.023315 
	C66.607407,222.672287 98.474121,169.201263 150.732391,128.232086 
	C189.531219,97.814751 233.811981,80.743690 282.772125,74.694855 
	C314.209808,70.810852 343.292603,78.498688 371.813293,89.767075 
	C403.126190,102.138672 430.881317,120.319527 455.125763,143.742905 
	C488.965179,176.436356 511.826508,215.680069 524.812500,260.796967 
	C531.304565,283.352325 534.432129,306.451294 534.528320,329.834717 
	C534.651978,359.874481 529.438049,389.098083 519.275391,417.455688 
	C505.074890,457.080658 482.800140,491.362610 452.085480,520.114258 
	C433.986023,537.056946 413.883698,551.207275 391.716156,562.369812 
	C381.215027,567.657654 371.242035,561.828735 371.186737,550.197510 
	C371.073425,526.366089 370.770081,502.526855 371.238373,478.704498 
	C371.559052,462.391663 366.580231,448.302948 356.527893,435.741058 
	C355.831055,434.870331 355.281586,433.881683 354.448181,432.622345 
	C364.581299,430.710022 374.401611,429.285858 384.006470,426.968689 
	C422.640442,417.648438 451.781738,396.807220 464.023438,357.460449 
	C467.886902,345.042603 469.360901,331.769867 470.883209,318.766022 
	C472.453094,305.355774 472.091583,291.865692 468.710785,278.583130 
	C464.946136,263.792725 458.241089,250.540955 448.561188,238.813416 
	C446.337738,236.119659 445.714172,233.862213 446.758087,230.291168 
	C452.824066,209.540222 450.646820,189.094223 443.315948,169.074509 
	C442.749573,167.527756 439.871124,165.652176 438.303741,165.845581 
	C430.421448,166.818192 422.053467,167.088898 414.907501,170.100769 
	C401.320068,175.827591 388.364655,183.095932 375.337494,190.079819 
	C372.206421,191.758392 369.675659,192.574738 366.076721,191.664536 
	C339.047058,184.828247 311.548859,182.533463 283.831787,185.232788 
	C271.125977,186.470200 258.565857,189.364426 246.008530,191.854599 
	C242.809052,192.489075 240.334473,192.273682 237.650452,190.454849 
	C223.385437,180.788132 208.347824,172.551956 191.623703,168.044479 
	C185.910385,166.504623 179.813309,166.214005 173.861359,165.858658 
	C172.396927,165.771240 169.966354,167.327011 169.413223,168.703384 
	C161.516434,188.353287 160.312775,208.495026 166.183807,228.857483 
	C167.442810,233.224045 166.760666,236.045578 163.859299,239.557404 
	C150.326355,255.937622 142.380920,274.944275 141.335892,296.114105 
	C140.188690,319.353638 142.438934,342.353210 151.142746,364.323273 
	C162.107895,392.001434 181.863998,410.939453 209.565948,420.876343 
	C222.920334,425.666626 237.208878,427.856812 251.082108,431.192413 
	C253.286865,431.722534 255.532242,432.083710 258.566101,432.682281 
	C256.033875,436.040283 253.406494,438.501068 252.047546,441.530792 
	C248.805344,448.759186 245.854034,456.157257 243.432983,463.694855 
	C242.509659,466.569458 241.390076,468.126801 238.655807,469.295929 
	C211.976776,480.703827 183.997040,472.386993 168.456238,447.641815 
	C159.823318,433.895844 148.682785,423.884399 132.751312,419.976562 
	C129.132065,419.088776 125.090332,418.855591 121.427284,419.452179 
	C115.167068,420.471832 114.127876,424.355469 118.673950,428.823914 
	C121.151009,431.258667 123.952034,433.438843 126.860397,435.347656 
	C145.316833,447.460907 156.405136,464.059692 159.298721,486.226593 
	C159.892029,490.771729 163.091583,494.976593 165.278137,499.648376 
z"/>
</svg>