<svg version="1.1" id="Layer_1" xmlns="http://www.w3.org/2000/svg" xmlns:xlink="http://www.w3.org/1999/xlink" x="0px" y="0px"
	 width="100%" viewBox="0 0 577 556" enable-background="new 0 0 577 556" xml:space="preserve">
<path fill="#F6F9F9" opacity="1.000000" stroke="none" 
	d="
M335.000000,557.000000 
	C223.357849,557.000000 112.215683,557.000000 1.036765,557.000000 
	C1.036765,371.732056 1.036765,186.464081 1.036765,1.098058 
	C193.225525,1.098058 385.451111,1.098058 577.838379,1.098058 
	C577.838379,186.333221 577.838379,371.666595 577.838379,557.000000 
	C497.130707,557.000000 416.315338,557.000000 335.000000,557.000000 
M292.500000,538.993958 
	C343.998016,538.993958 395.496002,538.994812 446.994019,538.993469 
	C468.659943,538.992920 490.327026,539.120850 511.991364,538.934875 
	C525.248840,538.821045 536.201172,533.759094 544.189697,522.790955 
	C549.779480,515.116333 551.157471,506.456818 551.155090,497.266113 
	C551.117676,353.770996 551.129578,210.275848 551.119446,66.780716 
	C551.119202,62.782650 551.213562,58.767334 550.891235,54.790249 
	C550.282104,47.273277 547.360291,40.664371 542.463196,34.904179 
	C533.699036,24.595303 522.305054,20.958988 509.117096,20.965694 
	C367.788605,21.037552 226.460052,21.008387 85.131516,21.016058 
	C79.465935,21.016365 73.782806,20.844639 68.139069,21.221077 
	C60.518177,21.729393 53.509945,24.213255 47.481163,29.081362 
	C37.171886,37.405861 32.787811,48.149712 32.800255,61.428276 
	C32.935810,206.089905 32.879761,350.751709 32.878906,495.413452 
	C32.878891,497.913239 32.890110,500.413513 32.941044,502.912689 
	C33.110542,511.229767 36.083134,518.489014 41.316895,524.873718 
	C49.781826,535.200195 60.979828,539.048279 74.007439,539.036560 
	C146.504913,538.971313 219.002472,538.998413 292.500000,538.993958 
z"/>
<path fill="#01FFC3" opacity="1.000000" stroke="none" 
	d="
M292.000000,538.993958 
	C219.002472,538.998413 146.504913,538.971313 74.007439,539.036560 
	C60.979828,539.048279 49.781826,535.200195 41.316895,524.873718 
	C36.083134,518.489014 33.110542,511.229767 32.941044,502.912689 
	C32.890110,500.413513 32.878891,497.913239 32.878906,495.413452 
	C32.879761,350.751709 32.935810,206.089905 32.800255,61.428276 
	C32.787811,48.149712 37.171886,37.405861 47.481163,29.081362 
	C53.509945,24.213255 60.518177,21.729393 68.139069,21.221077 
	C73.782806,20.844639 79.465935,21.016365 85.131516,21.016058 
	C226.460052,21.008387 367.788605,21.037552 509.117096,20.965694 
	C522.305054,20.958988 533.699036,24.595303 542.463196,34.904179 
	C547.360291,40.664371 550.282104,47.273277 550.891235,54.790249 
	C551.213562,58.767334 551.119202,62.782650 551.119446,66.780716 
	C551.129578,210.275848 551.117676,353.770996 551.155090,497.266113 
	C551.157471,506.456818 549.779480,515.116333 544.189697,522.790955 
	C536.201172,533.759094 525.248840,538.821045 511.991364,538.934875 
	C490.327026,539.120850 468.659943,538.992920 446.994019,538.993469 
	C395.496002,538.994812 343.998016,538.993958 292.000000,538.993958 
M295.003815,235.479828 
	C295.003815,228.872406 295.003815,222.264999 295.003815,215.136322 
	C292.516418,215.136322 290.725983,215.136246 288.935547,215.136337 
	C270.603119,215.137238 252.265488,215.381119 233.941483,214.988907 
	C228.546677,214.873444 227.697845,216.715027 227.706772,221.500870 
	C227.851776,299.163513 227.829727,376.826416 227.845367,454.489288 
	C227.845871,456.958435 227.845428,459.427582 227.845428,462.286438 
	C257.721100,462.286438 287.095795,462.286438 317.003357,462.286438 
	C317.003357,459.905884 317.003448,457.941376 317.003357,455.976868 
	C317.001465,420.478577 316.827881,384.979034 317.091461,349.482727 
	C317.182770,337.185699 317.544922,324.784180 319.226532,312.630035 
	C321.881104,293.442902 331.402039,277.613129 355.424438,274.186127 
	C381.200775,270.508942 398.057159,281.997986 402.251953,307.738770 
	C403.771118,317.060883 404.306763,326.629028 404.357391,336.089905 
	C404.574005,376.586639 404.493195,417.085449 404.355377,457.582916 
	C404.342194,461.457947 405.280060,462.887939 409.342834,462.789612 
	C419.835693,462.535797 430.343781,462.495087 440.834778,462.777893 
	C445.293915,462.898102 446.808380,461.762848 446.790344,457.007324 
	C446.610596,409.677094 446.866730,362.344788 446.587921,315.015503 
	C446.478912,296.515015 444.937988,278.069336 438.983856,260.321686 
	C433.432465,243.774536 423.944092,230.415283 408.111511,222.117218 
	C391.411285,213.364395 373.424652,211.722565 355.125305,212.994263 
	C331.169739,214.659058 311.819916,225.039856 298.196991,245.244949 
	C297.462982,246.333588 296.601807,247.336502 295.000458,249.418869 
	C295.000458,244.119934 295.000458,240.294281 295.003815,235.479828 
M182.862671,313.500000 
	C182.862671,280.892944 182.862671,248.285904 182.862671,215.481201 
	C159.336685,215.481201 136.453827,215.481201 113.369827,215.481201 
	C113.266724,217.125137 113.113602,218.427429 113.113571,219.729736 
	C113.111877,299.059998 113.150253,378.390259 113.051643,457.720398 
	C113.046684,461.708618 114.240860,462.837982 118.160461,462.802673 
	C137.991394,462.624084 157.824722,462.714905 177.657181,462.691101 
	C179.259048,462.689178 180.860733,462.535461 182.862518,462.431519 
	C182.862518,412.780701 182.862518,363.640350 182.862671,313.500000 
M126.430367,109.880974 
	C116.155197,116.870018 110.197708,126.701294 109.247147,138.918350 
	C106.989525,167.934250 134.292313,188.484528 161.851700,178.872787 
	C182.042038,171.831146 193.091675,146.051102 184.028091,127.132797 
	C173.131897,104.389313 149.098938,96.949463 126.430367,109.880974 
z"/>
<path fill="#F6F9F9" opacity="1.000000" stroke="none" 
	d="
M295.002136,235.974243 
	C295.000458,240.294281 295.000458,244.119934 295.000458,249.418869 
	C296.601807,247.336502 297.462982,246.333588 298.196991,245.244949 
	C311.819916,225.039856 331.169739,214.659058 355.125305,212.994263 
	C373.424652,211.722565 391.411285,213.364395 408.111511,222.117218 
	C423.944092,230.415283 433.432465,243.774536 438.983856,260.321686 
	C444.937988,278.069336 446.478912,296.515015 446.587921,315.015503 
	C446.866730,362.344788 446.610596,409.677094 446.790344,457.007324 
	C446.808380,461.762848 445.293915,462.898102 440.834778,462.777893 
	C430.343781,462.495087 419.835693,462.535797 409.342834,462.789612 
	C405.280060,462.887939 404.342194,461.457947 404.355377,457.582916 
	C404.493195,417.085449 404.574005,376.586639 404.357391,336.089905 
	C404.306763,326.629028 403.771118,317.060883 402.251953,307.738770 
	C398.057159,281.997986 381.200775,270.508942 355.424438,274.186127 
	C331.402039,277.613129 321.881104,293.442902 319.226532,312.630035 
	C317.544922,324.784180 317.182770,337.185699 317.091461,349.482727 
	C316.827881,384.979034 317.001465,420.478577 317.003357,455.976868 
	C317.003448,457.941376 317.003357,459.905884 317.003357,462.286438 
	C287.095795,462.286438 257.721100,462.286438 227.845428,462.286438 
	C227.845428,459.427582 227.845871,456.958435 227.845367,454.489288 
	C227.829727,376.826416 227.851776,299.163513 227.706772,221.500870 
	C227.697845,216.715027 228.546677,214.873444 233.941483,214.988907 
	C252.265488,215.381119 270.603119,215.137238 288.935547,215.136337 
	C290.725983,215.136246 292.516418,215.136322 295.003815,215.136322 
	C295.003815,222.264999 295.003815,228.872406 295.002136,235.974243 
z"/>
<path fill="#F5F9F8" opacity="1.000000" stroke="none" 
	d="
M182.862595,314.000000 
	C182.862518,363.640350 182.862518,412.780701 182.862518,462.431519 
	C180.860733,462.535461 179.259048,462.689178 177.657181,462.691101 
	C157.824722,462.714905 137.991394,462.624084 118.160461,462.802673 
	C114.240860,462.837982 113.046684,461.708618 113.051643,457.720398 
	C113.150253,378.390259 113.111877,299.059998 113.113571,219.729736 
	C113.113602,218.427429 113.266724,217.125137 113.369827,215.481201 
	C136.453827,215.481201 159.336685,215.481201 182.862671,215.481201 
	C182.862671,248.285904 182.862671,280.892944 182.862595,314.000000 
z"/>
<path fill="#F5F9F9" opacity="1.000000" stroke="none" 
	d="
M126.740814,109.687775 
	C149.098938,96.949463 173.131897,104.389313 184.028091,127.132797 
	C193.091675,146.051102 182.042038,171.831146 161.851700,178.872787 
	C134.292313,188.484528 106.989525,167.934250 109.247147,138.918350 
	C110.197708,126.701294 116.155197,116.870018 126.740814,109.687775 
z"/>
</svg>